<?xml version="1.0" encoding="utf-8"?>
<!-- Generator: Adobe Illustrator 16.0.0, SVG Export Plug-In . SVG Version: 6.00 Build 0)  -->
<!DOCTYPE svg PUBLIC "-//W3C//DTD SVG 1.1//EN" "http://www.w3.org/Graphics/SVG/1.1/DTD/svg11.dtd">
<svg version="1.1" id="Capa_1" xmlns="http://www.w3.org/2000/svg" xmlns:xlink="http://www.w3.org/1999/xlink" x="0px" y="0px"
	 width="354.667px" height="90.001px" viewBox="0 0 354.667 90.001" enable-background="new 0 0 354.667 90.001"
	 xml:space="preserve">
<g>
	<rect fill="#373737" width="354.667" height="90.001"/>
	<g>
		<g>
			<path fill="#FFFFFF" d="M92.039,62.824h4.545c2.475,0,4.299,0.413,5.474,1.243c1.178,0.829,1.765,2.124,1.765,3.885
				c0,2.493-1.396,4.074-4.184,4.743c3.031,0.424,4.546,2.06,4.546,4.913c0,1.564-0.55,2.773-1.652,3.622
				c-1.1,0.852-2.668,1.275-4.703,1.275h-5.79V62.824z M95.885,64.846v6.847c1.477-0.031,2.552-0.294,3.223-0.79
				c0.67-0.493,1.007-1.354,1.007-2.578c0-1.33-0.291-2.241-0.872-2.735C98.662,65.095,97.542,64.846,95.885,64.846z M95.885,73.653
				v6.86c1.537-0.021,2.634-0.251,3.29-0.688c0.655-0.438,0.983-1.297,0.983-2.572c0-1.36-0.332-2.299-0.995-2.813
				C98.5,73.926,97.406,73.663,95.885,73.653z"/>
			<path fill="#FFFFFF" d="M128.647,82.506h-10.426V62.824h10.245v2.238h-6.399v6.242h5.924v2.24h-5.924v6.781h6.58V82.506z"/>
			<path fill="#FFFFFF" d="M153.451,65.063h-4.411v17.443h-3.891V65.063h-4.389v-2.238h12.69V65.063z"/>
			<path fill="#FFFFFF" d="M179.902,82.506h-3.749l-1.055-3.894H169l-1.069,3.894h-3.702l6.22-19.682h3.19L179.902,82.506z
				 M174.581,76.618l-2.533-9.337h-0.093l-2.394,9.337H174.581z"/>
			<path fill="#FFFFFF" d="M207.352,82.506h-3.053l-7.352-13.51l-0.091,0.008v13.502h-3.482V62.824h3.098l7.373,13.506l0.092,0.011
				V62.824h3.415V82.506z"/>
			<path fill="#FFFFFF" d="M234.235,82.165c-1.162,0.381-2.323,0.572-3.484,0.572c-2.321,0-4.33-0.613-6.027-1.84
				c-1.695-1.227-2.544-3.788-2.544-7.685c0-4.226,0.849-7.07,2.544-8.533c1.697-1.465,3.751-2.195,6.163-2.195
				c0.905,0,2.021,0.102,3.349,0.31v2.408c-0.875-0.236-1.697-0.356-2.466-0.356c-1.509,0-2.796,0.525-3.868,1.571
				c-1.071,1.046-1.605,3.11-1.605,6.194c0,1.835,0.116,3.271,0.351,4.305c0.233,1.037,0.771,1.861,1.616,2.476
				c0.845,0.613,1.907,0.92,3.189,0.92c0.754,0,1.682-0.159,2.783-0.479V82.165z"/>
			<path fill="#FFFFFF" d="M248.271,72.611c0-4.271,0.614-7.035,1.843-8.292c1.229-1.255,3.253-1.882,6.072-1.882
				c3.227,0,5.372,0.701,6.437,2.107c1.063,1.404,1.594,3.935,1.594,7.587c0,3.273-0.237,5.542-0.714,6.809
				c-0.474,1.266-1.296,2.197-2.465,2.794c-1.168,0.597-2.755,0.895-4.761,0.895c-2.065,0-3.649-0.276-4.749-0.825
				c-1.102-0.55-1.92-1.443-2.454-2.679C248.539,77.89,248.271,75.719,248.271,72.611z M260.146,72.765
				c0-3.735-0.322-6.042-0.965-6.923c-0.642-0.88-1.606-1.318-2.892-1.318c-1.512,0-2.548,0.527-3.108,1.581
				c-0.56,1.057-0.839,2.832-0.839,5.333v1.08c0,2.789,0.229,4.822,0.681,6.104c0.454,1.281,1.543,1.921,3.267,1.921
				c1.059,0,1.966-0.359,2.723-1.08c0.756-0.72,1.134-2.711,1.134-5.974V72.765z"/>
			<path fill="#FFFFFF" d="M292.637,77.854c0,3.288-2.156,4.93-6.468,4.93c-4.736,0-7.103-1.632-7.103-4.897V62.854h3.846v13.919
				c0,1.494,0.188,2.527,0.564,3.098c0.377,0.571,1.199,0.857,2.467,0.857c1.265,0,2.056-0.301,2.374-0.902
				c0.317-0.604,0.476-1.671,0.476-3.208V62.854h3.844V77.854z"/>
			<path fill="#FFFFFF" d="M320.244,82.506h-4.036l-4.514-9.238h-0.339v9.238h-3.89V62.824h5.382c4.389,0,6.583,1.678,6.583,5.036
				c0,1.524-0.325,2.673-0.974,3.444c-0.647,0.772-1.703,1.354-3.166,1.746L320.244,82.506z M311.355,71.459
				c1.508-0.021,2.597-0.265,3.269-0.733c0.671-0.468,1.007-1.321,1.007-2.557c0-1.185-0.307-2.028-0.917-2.534
				c-0.61-0.505-1.655-0.755-3.132-0.755h-0.227V71.459z"/>
			<path fill="#FFFFFF" d="M344.322,65.063h-4.411v17.443h-3.891V65.063h-4.388v-2.238h12.689V65.063z"/>
		</g>
		<g>
			<path fill="#FFFFFF" d="M130.347,14.713v7.672h-3.478l-11.26,30.962h-12.418L91.933,22.385h-3.477v-7.672h20.366v7.672h-3.588
				l4.967,15.231l5.188-15.231h-3.312v-7.672H130.347z"/>
			<path fill="#FFFFFF" d="M166.331,45.731h3.863v7.615H150.27v-7.615h3.698l-0.827-2.649h-10.046l-0.883,2.649h3.864v7.615H128.47
				v-7.615h3.478l8.443-23.347h-2.373v-7.672h16.392h0.663L166.331,45.731z M145.414,36.459h5.574l-2.76-8.278L145.414,36.459z"/>
			<path fill="#FFFFFF" d="M215.837,45.731v7.615h-0.773h-9.327h-3.091c-0.331-0.734-0.698-1.545-1.103-2.428
				c-0.369-0.736-0.792-1.609-1.271-2.622c-0.479-1.012-0.976-2.069-1.489-3.174c-0.553-1.104-1.04-2.041-1.462-2.814
				c-0.424-0.773-0.839-1.398-1.243-1.876s-0.846-0.828-1.324-1.05c-0.479-0.221-1.05-0.33-1.712-0.33h-1.49v6.679h4.085v7.615
				h-20.476v-7.615h4.028V22.385h-4.028v-7.672h20.476v0.056c0.184,0,0.358-0.01,0.524-0.028c0.166-0.018,0.339-0.027,0.523-0.027
				c2.502,0,4.701,0.296,6.597,0.884c1.895,0.588,3.477,1.398,4.746,2.429c1.27,1.028,2.225,2.254,2.869,3.669
				c0.644,1.418,0.966,2.973,0.966,4.664c0,1.693-0.569,3.349-1.711,4.967c-1.141,1.62-2.758,2.89-4.855,3.809
				c1.471,0.627,2.574,1.499,3.312,2.621c0.735,1.123,1.435,2.513,2.097,4.167c0.184,0.406,0.395,0.948,0.634,1.628
				c0.24,0.682,0.505,1.408,0.802,2.182H215.837z M199.28,26.91c0-1.692-0.359-2.869-1.077-3.532s-1.573-0.993-2.566-0.993h-4.085
				v8.995h4.085c0.993,0,1.849-0.33,2.566-0.992S199.28,28.565,199.28,26.91z"/>
			<path fill="#FFFFFF" d="M257.894,36.68v16.667h-6.955l-2.097-1.986c-0.993,0.627-2.173,1.178-3.532,1.655
				c-1.987,0.663-4.177,0.993-6.568,0.993c-3.2,0-6.063-0.523-8.583-1.573c-2.52-1.048-4.663-2.473-6.429-4.276
				c-1.767-1.802-3.119-3.919-4.056-6.347c-0.939-2.43-1.409-5.023-1.409-7.782s0.451-5.354,1.354-7.782
				c0.9-2.428,2.188-4.543,3.862-6.348c1.675-1.802,3.707-3.228,6.099-4.277c2.392-1.049,5.078-1.572,8.058-1.572
				c1.03,0,1.988,0.119,2.871,0.358s1.683,0.552,2.4,0.938s1.353,0.8,1.905,1.241c0.551,0.442,1.028,0.848,1.435,1.216v-3.092h8.555
				v13.963h-8.555c-0.11-1.103-0.406-2.086-0.884-2.951c-0.479-0.865-1.058-1.583-1.738-2.153s-1.445-0.993-2.291-1.27
				c-0.847-0.275-1.674-0.376-2.483-0.304c-0.957,0.073-1.867,0.341-2.731,0.801c-0.865,0.46-1.619,1.159-2.264,2.097
				c-0.645,0.938-1.149,2.152-1.518,3.644c-0.368,1.489-0.552,3.32-0.552,5.491c0,2.172,0.239,3.983,0.718,5.436
				c0.478,1.455,1.086,2.632,1.82,3.533c0.737,0.902,1.537,1.564,2.402,1.987c0.864,0.424,1.701,0.689,2.511,0.8
				c2.208,0.405,4.229,0.129,6.071-0.828v-2.317h-2.318V36.68H257.894z"/>
			<path fill="#FFFFFF" d="M300.004,45.731h3.863v7.615h-19.925v-7.615h3.698l-0.827-2.649h-10.045l-0.884,2.649h3.864v7.615
				h-17.606v-7.615h3.478l8.444-23.347h-2.374v-7.672h16.392h0.663L300.004,45.731z M279.087,36.459h5.574l-2.76-8.278
				L279.087,36.459z"/>
			<path fill="#FFFFFF" d="M332.731,29.835c1.104,0.406,2.328,0.911,3.671,1.519s2.603,1.39,3.78,2.346
				c1.177,0.956,2.16,2.106,2.953,3.449c0.79,1.344,1.187,2.953,1.187,4.829s-0.358,3.552-1.077,5.023
				c-0.717,1.471-1.72,2.731-3.008,3.78c-1.287,1.047-2.842,1.849-4.663,2.399c-1.821,0.553-3.854,0.828-6.099,0.828
				c-2.172,0-4.011-0.166-5.519-0.496c-1.51-0.332-2.779-0.726-3.809-1.187c-1.031-0.46-1.841-0.956-2.429-1.49
				c-0.589-0.533-1.049-1.021-1.38-1.462v3.973h-8.333v-12.97h8.333c0.552,1.251,1.306,2.355,2.263,3.312
				c0.81,0.847,1.849,1.61,3.119,2.29c1.269,0.682,2.841,1.022,4.719,1.022c0.367,0,0.817-0.064,1.352-0.194
				c0.533-0.128,1.039-0.321,1.518-0.579c0.479-0.257,0.884-0.57,1.215-0.938c0.33-0.367,0.496-0.791,0.496-1.27
				c0-1.066-0.682-1.895-2.041-2.484c-1.362-0.587-3.257-1.23-5.686-1.931c-1.214-0.331-2.669-0.735-4.36-1.215
				c-1.692-0.478-3.294-1.187-4.802-2.124c-1.51-0.938-2.796-2.18-3.863-3.726c-1.067-1.545-1.6-3.569-1.6-6.071
				c0-2.097,0.477-3.919,1.435-5.463c0.956-1.547,2.134-2.834,3.532-3.864c1.396-1.03,2.915-1.803,4.553-2.318
				c1.637-0.516,3.154-0.772,4.554-0.772c1.545,0,2.916,0.176,4.111,0.523c1.195,0.351,2.253,0.783,3.175,1.298
				c0.918,0.516,1.683,1.067,2.289,1.655c0.606,0.59,1.094,1.143,1.463,1.655v-4.47h8.39v12.474h-8.39
				c-0.627-0.81-1.344-1.546-2.152-2.207c-0.699-0.553-1.519-1.067-2.457-1.546c-0.937-0.479-1.977-0.719-3.117-0.719
				c-0.81,0-1.481,0.093-2.016,0.277c-0.533,0.184-0.946,0.404-1.241,0.662s-0.507,0.506-0.634,0.745
				c-0.13,0.239-0.194,0.433-0.194,0.58c0,0.588,0.35,1.095,1.049,1.517c0.7,0.423,1.592,0.82,2.677,1.187
				c1.085,0.369,2.254,0.718,3.506,1.049C330.451,29.063,331.628,29.431,332.731,29.835z"/>
		</g>
	</g>
	<g>
		<g>
			<g>
				<linearGradient id="SVGID_1_" gradientUnits="userSpaceOnUse" x1="40.457" y1="14.0508" x2="40.457" y2="76.8213">
					<stop  offset="0" style="stop-color:#009EE3"/>
					<stop  offset="1" style="stop-color:#0D6BA4"/>
				</linearGradient>
				<path fill="url(#SVGID_1_)" d="M10.656,14.051c-1.45,0-2.638,1.188-2.638,2.638v57.495c0,1.45,1.188,2.638,2.638,2.638h59.602
					c1.45,0,2.638-1.188,2.638-2.638V16.688c0-1.45-1.188-2.638-2.638-2.638H10.656z M69.616,71.011c0,1.45-1.188,2.638-2.638,2.638
					H13.936c-1.45,0-2.638-1.188-2.638-2.638V19.861c0-1.45,1.188-2.638,2.638-2.638h53.043c1.45,0,2.638,1.188,2.638,2.638V71.011z
					"/>
			</g>
		</g>
		<g>
			<g>
				<g>
					<linearGradient id="SVGID_2_" gradientUnits="userSpaceOnUse" x1="41.6533" y1="23.0684" x2="41.6533" y2="50.4473">
						<stop  offset="0" style="stop-color:#009EE3"/>
						<stop  offset="1" style="stop-color:#0D6BA4"/>
					</linearGradient>
					<path fill="url(#SVGID_2_)" d="M37.26,32.666c-1.27,0-1.97,0.981-1.557,2.182l5.06,14.696c0.413,1.2,1.103,1.204,1.532,0.01
						l5.292-14.716c0.43-1.194-0.203-2.172-1.406-2.172c-1.202,0-2.187-1.038-2.187-2.308v-4.982c0-1.27-0.969-2.308-2.151-2.308
						c-1.184,0-2.152,1.038-2.152,2.308v4.982c0,1.27-1.038,2.308-2.308,2.308H37.26z"/>
				</g>
				<g>
					<linearGradient id="SVGID_3_" gradientUnits="userSpaceOnUse" x1="22.1787" y1="32.666" x2="22.1787" y2="71.4063">
						<stop  offset="0" style="stop-color:#009EE3"/>
						<stop  offset="1" style="stop-color:#0D6BA4"/>
					</linearGradient>
					<path fill="url(#SVGID_3_)" d="M15.085,32.666c-1.264,0-2.298,1.038-2.298,2.308v34.125c0,1.27,1.038,2.308,2.308,2.308h14.853
						c1.27,0,1.936-0.97,1.48-2.154L18.21,34.82C17.755,33.636,16.349,32.666,15.085,32.666z"/>
				</g>
				<g>
					<linearGradient id="SVGID_4_" gradientUnits="userSpaceOnUse" x1="58.7344" y1="32.666" x2="58.7344" y2="71.4063">
						<stop  offset="0" style="stop-color:#009EE3"/>
						<stop  offset="1" style="stop-color:#0D6BA4"/>
					</linearGradient>
					<path fill="url(#SVGID_4_)" d="M49.486,69.252c-0.455,1.185,0.211,2.154,1.48,2.154h14.852c1.27,0,2.308-1.038,2.308-2.308
						V34.974c0-1.27-1.033-2.308-2.297-2.308s-2.669,0.97-3.124,2.154L49.486,69.252z"/>
				</g>
			</g>
		</g>
	</g>
</g>
</svg>
